<svg xmlns="http://www.w3.org/2000/svg" xml:space="preserve" viewBox="0 0 512 512"><path d="M368 512H144C64.5 512 0 447.5 0 368V144C0 64.5 64.5 0 144 0h224c79.5 0 144 64.5 144 144v224c0 79.5-64.5 144-144 144z"/><path d="M284.5 189.2h0m38.3 38.3h0m-35.6 35.7h0m-38.4-38.4h0m-129 167.4c-31.8-31.8-31.8-83.3 0-115.1L300.9 96 416 211.1 234.9 392.2c-31.8 31.7-83.3 31.7-115.1 0zm38.4-76.7v38.4h38.4m35.8-35.9v-38.4H194m145.3-106.9 18.4-18.4" style="fill:none;stroke:#00ffa3;stroke-width:32;stroke-linecap:round;stroke-linejoin:round;stroke-miterlimit:10"/></svg>